HIERARCHY
ROOT root
{
  OFFSET 0 93.2929 0
  CHANNELS 6 Xposition Yposition Zposition Zrotation Xrotation Yrotation
  JOINT torso_1
  {
    OFFSET 0 5.07867 -1.15138
    CHANNELS 6 Xposition Yposition Zposition Zrotation Xrotation Yrotation
    JOINT torso_2
    {
      OFFSET 0 5.61661 1.07143
      CHANNELS 6 Xposition Yposition Zposition Zrotation Xrotation Yrotation
      JOINT torso_3
      {
        OFFSET -1.02604e-17 5.98978 0.11501
        CHANNELS 6 Xposition Yposition Zposition Zrotation Xrotation Yrotation
        JOINT torso_4
        {
          OFFSET -1.10457e-17 6.50583 -0.443523
          CHANNELS 6 Xposition Yposition Zposition Zrotation Xrotation Yrotation
          JOINT torso_5
          {
            OFFSET -1.97295e-17 7.60548 -1.50593
            CHANNELS 6 Xposition Yposition Zposition Zrotation Xrotation Yrotation
            JOINT torso_6
            {
              OFFSET -2.53307e-17 9.49737 -0.914492
              CHANNELS 6 Xposition Yposition Zposition Zrotation Xrotation Yrotation
              JOINT torso_7
              {
                OFFSET -2.90401e-17 10.5513 1.57691
                CHANNELS 6 Xposition Yposition Zposition Zrotation Xrotation Yrotation
                JOINT neck_1
                {
                  OFFSET -1.29193e-17 4.78644 0.715339
                  CHANNELS 6 Xposition Yposition Zposition Zrotation Xrotation Yrotation
                  JOINT neck_2
                  {
                    OFFSET -1.8116e-17 4.82109 0.421791
                    CHANNELS 6 Xposition Yposition Zposition Zrotation Xrotation Yrotation
                    JOINT head
                    {
                      OFFSET -2.00958e-17 4.83041 0.765062
                      CHANNELS 6 Xposition Yposition Zposition Zrotation Xrotation Yrotation
                      End Site
                      {
                        OFFSET 0 0.1 0
                      }
                    }
                  }
                }
                JOINT l_shoulder
                {
                  OFFSET 1.23299 -7.60731 7.53374
                  CHANNELS 6 Xposition Yposition Zposition Zrotation Xrotation Yrotation
                  JOINT l_up_arm
                  {
                    OFFSET 12.9547 3.2495 -3.26872
                    CHANNELS 6 Xposition Yposition Zposition Zrotation Xrotation Yrotation
                    JOINT l_low_arm
                    {
                      OFFSET 29.2081 0.0598081 0.137039
                      CHANNELS 6 Xposition Yposition Zposition Zrotation Xrotation Yrotation
                      JOINT l_hand
                      {
                        OFFSET 24.234 0.0496219 0.113701
                        CHANNELS 6 Xposition Yposition Zposition Zrotation Xrotation Yrotation
                        End Site
                        {
                          OFFSET 0.1 0 0
                        }
                      }
                    }
                  }
                }
                JOINT r_shoulder
                {
                  OFFSET -1.23299 -7.60729 7.53365
                  CHANNELS 6 Xposition Yposition Zposition Zrotation Xrotation Yrotation
                  JOINT r_up_arm
                  {
                    OFFSET -12.9547 3.2495 -3.26872
                    CHANNELS 6 Xposition Yposition Zposition Zrotation Xrotation Yrotation
                    JOINT r_low_arm
                    {
                      OFFSET -29.2081 0.0598081 0.137039
                      CHANNELS 6 Xposition Yposition Zposition Zrotation Xrotation Yrotation
                      JOINT r_hand
                      {
                        OFFSET -24.234 0.0496218 0.113702
                        CHANNELS 6 Xposition Yposition Zposition Zrotation Xrotation Yrotation
                        End Site
                        {
                          OFFSET -0.1 0 0
                        }
                      }
                    }
                  }
                }
              }
            }
          }
        }
      }
    }
  }
  JOINT l_up_leg
  {
    OFFSET 9.23673 -4.20556 2.0327
    CHANNELS 6 Xposition Yposition Zposition Zrotation Xrotation Yrotation
    JOINT l_low_leg
    {
      OFFSET -0.852353 -38.7721 -0.655187
      CHANNELS 6 Xposition Yposition Zposition Zrotation Xrotation Yrotation
      JOINT l_foot
      {
        OFFSET -2.32622 -40.4017 -6.04875
        CHANNELS 6 Xposition Yposition Zposition Zrotation Xrotation Yrotation
        JOINT l_toes
        {
          OFFSET 0.779096 -9.8844 12.4959
          CHANNELS 6 Xposition Yposition Zposition Zrotation Xrotation Yrotation
          End Site
          {
            OFFSET 0 0 0.1
          }
        }
      }
    }
  }
  JOINT r_up_leg
  {
    OFFSET -9.23673 -4.20556 2.0327
    CHANNELS 6 Xposition Yposition Zposition Zrotation Xrotation Yrotation
    JOINT r_low_leg
    {
      OFFSET 0.852353 -38.7721 -0.655187
      CHANNELS 6 Xposition Yposition Zposition Zrotation Xrotation Yrotation
      JOINT r_foot
      {
        OFFSET 2.32622 -40.4017 -6.04875
        CHANNELS 6 Xposition Yposition Zposition Zrotation Xrotation Yrotation
        JOINT r_toes
        {
          OFFSET -0.779096 -9.8844 12.4959
          CHANNELS 6 Xposition Yposition Zposition Zrotation Xrotation Yrotation
          End Site
          {
            OFFSET 0 0 0.1
          }
        }
      }
    }
  }
}
MOTION
Frames: 8
Frame Time: 0.016667
0 93.2929 0 -0 0 -0 0 5.07867 -1.15138 -0 0 -0 0 5.61661 1.07143 -0 0 -0 -1.02604e-17 5.98978 0.11501 -0 0 -0 -1.10457e-17 6.50583 -0.443523 -0 0 -0 -1.97295e-17 7.60548 -1.50593 -0 0 -0 -2.53307e-17 9.49737 -0.914492 -0 0 -0 -2.90401e-17 10.5513 1.57691 -0 0 -0 -1.29193e-17 4.78644 0.715339 -0 0 -0 -1.8116e-17 4.82109 0.421791 -0 0 -0 -2.00958e-17 4.83041 0.765062 -0 0 -0 1.23299 -7.60731 7.53374 -0 0 -0 12.9547 3.2495 -3.26872 -0 0 -0 29.2081 0.0598081 0.137039 -0 0 -0 24.234 0.0496219 0.113701 -0 0 -0 -1.23299 -7.60729 7.53365 -0 0 -0 -12.9547 3.2495 -3.26872 -0 0 -0 -29.2081 0.0598081 0.137039 -0 0 -0 -24.234 0.0496218 0.113702 -0 0 -0 9.23673 -4.20556 2.0327 -0 0 -0 -0.852353 -38.7721 -0.655187 -0 0 -0 -2.32622 -40.4017 -6.04875 -0 0 -0 0.779096 -9.8844 12.4959 -0 0 -0 -9.23673 -4.20556 2.0327 -0 0 -0 0.852353 -38.7721 -0.655187 -0 0 -0 2.32622 -40.4017 -6.04875 -0 0 -0 -0.779096 -9.8844 12.4959 -0 0 -0 
7.94239 91.3177 47.2259 6.20763 1.39496 0.613929 0 5.07867 -1.15138 -0.977839 -2.8048 0.799792 0 5.61661 1.07143 -0.809812 -0.989674 0.668164 -1.02604e-17 5.98978 0.11501 -0.606814 1.22561 0.64394 -1.10457e-17 6.50583 -0.443523 -0.422347 4.71684 0.68932 -1.97295e-17 7.60548 -1.50593 -0.0432706 6.633 0.745112 -2.53307e-17 9.49737 -0.914492 0.507601 7.65517 0.523784 -2.90401e-17 10.5513 1.57691 -0.0838958 0.0280626 0.2673 -1.29193e-17 4.78644 0.715339 -2.36612 -51.9465 -4.73833 -1.8116e-17 4.82109 0.421791 0.637987 2.04601 -1.36687 -2.00958e-17 4.83041 0.765062 -4.92598 39.2172 2.79906 1.23299 -7.60731 7.53374 -12.4221 5.46956 -10.7682 12.9547 3.2495 -3.26872 -39.5618 22.656 -41.2494 29.2081 0.0598081 0.137039 9.10409 -4.15236 -49.5559 24.234 0.0496219 0.113701 -1.36829 -41.4703 -5.68349 -1.23299 -7.60729 7.53365 11.87 4.5326 11.6905 -12.9547 3.2495 -3.26872 50.1379 25.0542 38.137 -29.2081 0.0598081 0.137039 -9.91329 -5.20007 55.8667 -24.234 0.0496218 0.113702 -6.11017 2.71911 1.10448 9.23673 -4.20556 2.0327 -2.3807 1.69807 2.56992 -0.852353 -38.7721 -0.655187 -1.00768 3.76318 -0.0326002 -2.32622 -40.4017 -6.04875 -2.74351 -6.56419 15.9553 0.779096 -9.8844 12.4959 1.21191e-16 -7.92128e-16 9.41334e-18 -9.23673 -4.20556 2.0327 -8.96814 -22.6914 20.568 0.852353 -38.7721 -0.655187 5.11996 18.6165 -0.511497 2.32622 -40.4017 -6.04875 2.61554 -2.46525 -15.5803 -0.779096 -9.8844 12.4959 -2.95127e-16 -5.77909e-16 -1.27565e-14 
7.78821 91.3364 47.3942 6.15922 1.41622 0.628463 0 5.07867 -1.15138 -0.984489 -2.90306 0.765341 0 5.61661 1.07143 -0.809162 -1.06829 0.634782 -1.02604e-17 5.98978 0.11501 -0.602224 1.17294 0.613317 -1.10457e-17 6.50583 -0.443523 -0.412635 4.6984 0.658231 -1.97295e-17 7.60548 -1.50593 -0.0367707 6.63547 0.712167 -2.53307e-17 9.49737 -0.914492 0.504437 7.67936 0.492467 -2.90401e-17 10.5513 1.57691 -0.0834111 0.0244183 0.264659 -1.29193e-17 4.78644 0.715339 -2.16564 -51.3036 -4.4724 -1.8116e-17 4.82109 0.421791 0.630294 2.064 -1.31467 -2.00958e-17 4.83041 0.765062 -4.73005 38.8077 2.77394 1.23299 -7.60731 7.53374 -12.4113 5.44623 -10.7608 12.9547 3.2495 -3.26872 -39.428 22.6487 -41.0329 29.2081 0.0598081 0.137039 9.09548 -4.1424 -49.4931 24.234 0.0496219 0.113701 -1.33087 -41.7797 -5.5861 -1.23299 -7.60729 7.53365 11.7124 4.47449 11.6159 -12.9547 3.2495 -3.26872 50.3081 25.4042 38.1996 -29.2081 0.0598081 0.137039 -9.93272 -5.22839 56.0302 -24.234 0.0496218 0.113702 -6.17495 2.38971 1.13524 9.23673 -4.20556 2.0327 -2.23134 1.79068 2.61719 -0.852353 -38.7721 -0.655187 -0.990948 3.70072 -0.0325995 -2.32622 -40.4017 -6.04875 -2.86536 -6.49191 15.9747 0.779096 -9.8844 12.4959 3.26075e-16 -7.85725e-16 3.0107e-18 -9.23673 -4.20556 2.0327 -8.8092 -22.6679 20.675 0.852353 -38.7721 -0.655187 5.15557 18.738 -0.520776 2.32622 -40.4017 -6.04875 2.52054 -2.50314 -15.5839 -0.779096 -9.8844 12.4959 -5.96354e-16 -5.59082e-16 -1.27471e-14 
7.64648 91.3552 47.545 6.14764 1.45528 0.660584 0 5.07867 -1.15138 -0.963087 -2.9465 0.737805 0 5.61661 1.07143 -0.783959 -1.10194 0.609196 -1.02604e-17 5.98978 0.11501 -0.578431 1.1514 0.588575 -1.10457e-17 6.50583 -0.443523 -0.389195 4.69497 0.633369 -1.97295e-17 7.60548 -1.50593 -0.0207291 6.64369 0.683133 -2.53307e-17 9.49737 -0.914492 0.507425 7.70301 0.461446 -2.90401e-17 10.5513 1.57691 -0.0849988 0.0208806 0.265026 -1.29193e-17 4.78644 0.715339 -1.97501 -51.2672 -4.23808 -1.8116e-17 4.82109 0.421791 0.601388 2.08697 -1.24893 -2.00958e-17 4.83041 0.765062 -4.76742 38.8041 2.84746 1.23299 -7.60731 7.53374 -12.3746 5.40934 -10.712 12.9547 3.2495 -3.26872 -39.4567 22.6501 -40.9594 29.2081 0.0598081 0.137039 9.08782 -4.13356 -49.4373 24.234 0.0496219 0.113701 -1.32363 -42.0382 -5.55198 -1.23299 -7.60729 7.53365 11.7094 4.48222 11.6253 -12.9547 3.2495 -3.26872 50.3165 25.4884 38.2239 -29.2081 0.0598081 0.137039 -9.93585 -5.23295 56.0566 -24.234 0.0496218 0.113702 -6.24939 2.26688 1.24818 9.23673 -4.20556 2.0327 -2.12163 1.86268 2.61697 -0.852353 -38.7721 -0.655187 -0.970072 3.62281 -0.0325729 -2.32622 -40.4017 -6.04875 -3.041 -6.40561 15.9911 0.779096 -9.8844 12.4959 2.48481e-17 -7.95139e-16 1.2424e-17 -9.23673 -4.20556 2.0327 -8.70794 -22.6671 20.7601 0.852353 -38.7721 -0.655187 5.1885 18.8502 -0.529421 2.32622 -40.4017 -6.04875 2.47457 -2.55582 -15.5962 -0.779096 -9.8844 12.4959 -6.92697e-16 -5.56071e-16 -1.2741e-14 
7.51555 91.3752 47.6809 6.17603 1.51105 0.702311 0 5.07867 -1.15138 -0.952057 -3.00481 0.721231 0 5.61661 1.07143 -0.770104 -1.14746 0.594028 -1.02604e-17 5.98978 0.11501 -0.564604 1.11961 0.574435 -1.10457e-17 6.50583 -0.443523 -0.37523 4.68414 0.619501 -1.97295e-17 7.60548 -1.50593 -0.0107481 6.64816 0.66689 -2.53307e-17 9.49737 -0.914492 0.510014 7.72061 0.443709 -2.90401e-17 10.5513 1.57691 -0.085088 0.0200537 0.265645 -1.29193e-17 4.78644 0.715339 -1.8464 -51.2006 -4.07149 -1.8116e-17 4.82109 0.421791 0.593158 2.12387 -1.20413 -2.00958e-17 4.83041 0.765062 -4.80792 38.7799 2.89914 1.23299 -7.60731 7.53374 -12.3401 5.38393 -10.6653 12.9547 3.2495 -3.26872 -39.4745 22.7154 -41.0225 29.2081 0.0598081 0.137039 9.05039 -4.0906 -49.1657 24.234 0.0496219 0.113701 -1.35137 -42.2993 -5.61768 -1.23299 -7.60729 7.53365 11.7102 4.48519 11.6095 -12.9547 3.2495 -3.26872 50.3515 25.5172 38.2073 -29.2081 0.0598081 0.137039 -9.93297 -5.22875 56.0324 -24.234 0.0496218 0.113702 -6.29972 2.1904 1.29003 9.23673 -4.20556 2.0327 -2.05925 1.89338 2.61305 -0.852353 -38.7721 -0.655187 -0.953021 3.55916 -0.0325301 -2.32622 -40.4017 -6.04875 -3.17821 -6.28515 16.0017 0.779096 -9.8844 12.4959 1.21191e-16 -7.92128e-16 9.41334e-18 -9.23673 -4.20556 2.0327 -8.66116 -22.6884 20.835 0.852353 -38.7721 -0.655187 5.21816 18.9512 -0.537261 2.32622 -40.4017 -6.04875 2.40658 -2.60743 -15.6025 -0.779096 -9.8844 12.4959 -7.04896e-16 -5.58701e-16 -1.27343e-14 
7.39294 91.3934 47.8033 6.23056 1.59059 0.739421 0 5.07867 -1.15138 -0.975061 -3.07812 0.704429 0 5.61661 1.07143 -0.78598 -1.20713 0.574554 -1.02604e-17 5.98978 0.11501 -0.575044 1.07457 0.555353 -1.10457e-17 6.50583 -0.443523 -0.380139 4.65956 0.599213 -1.97295e-17 7.60548 -1.50593 -0.015188 6.63917 0.647219 -2.53307e-17 9.49737 -0.914492 0.502104 7.7254 0.425534 -2.90401e-17 10.5513 1.57691 -0.085027 0.0220442 0.262539 -1.29193e-17 4.78644 0.715339 -1.70469 -50.9288 -3.87539 -1.8116e-17 4.82109 0.421791 0.583053 2.17333 -1.15854 -2.00958e-17 4.83041 0.765062 -4.6862 38.5925 2.87743 1.23299 -7.60731 7.53374 -12.3652 5.41093 -10.6684 12.9547 3.2495 -3.26872 -39.502 22.7189 -40.9925 29.2081 0.0598081 0.137039 8.99881 -4.03207 -48.7936 24.234 0.0496219 0.113701 -1.37224 -42.4572 -5.71295 -1.23299 -7.60729 7.53365 11.6073 4.44659 11.5409 -12.9547 3.2495 -3.26872 50.3909 25.628 38.2887 -29.2081 0.0598081 0.137039 -9.92205 -5.21282 55.9403 -24.234 0.0496218 0.113702 -6.3057 1.96727 1.23848 9.23673 -4.20556 2.0327 -2.0363 1.89623 2.63527 -0.852353 -38.7721 -0.655187 -0.932269 3.4817 -0.0324524 -2.32622 -40.4017 -6.04875 -3.32353 -6.15833 16.0165 0.779096 -9.8844 12.4959 3.26075e-16 -7.85725e-16 3.0107e-18 -9.23673 -4.20556 2.0327 -8.66295 -22.718 20.8763 0.852353 -38.7721 -0.655187 5.23513 19.0089 -0.541771 2.32622 -40.4017 -6.04875 2.3652 -2.68811 -15.6069 -0.779096 -9.8844 12.4959 -9.02429e-17 -5.84311e-16 -1.27599e-14 
7.42919 91.3974 47.7029 6.31301 1.66828 0.789056 0 5.07867 -1.15138 -0.978502 -2.89311 0.702492 0 5.61661 1.07143 -0.78441 -1.06818 0.566938 -1.02604e-17 5.98978 0.11501 -0.572269 1.15717 0.542615 -1.10457e-17 6.50583 -0.443523 -0.373821 4.66144 0.583961 -1.97295e-17 7.60548 -1.50593 -0.00803264 6.58544 0.628024 -2.53307e-17 9.49737 -0.914492 0.507964 7.6448 0.399494 -2.90401e-17 10.5513 1.57691 -0.0864807 0.025386 0.260579 -1.29193e-17 4.78644 0.715339 -1.62553 -51.9972 -3.90464 -1.8116e-17 4.82109 0.421791 0.551729 2.10824 -1.13022 -2.00958e-17 4.83041 0.765062 -4.98203 39.3526 3.23939 1.23299 -7.60731 7.53374 -12.5152 5.55269 -10.7918 12.9547 3.2495 -3.26872 -39.3931 22.2391 -40.8106 29.2081 0.0598081 0.137039 8.95252 -3.98019 -48.462 24.234 0.0496219 0.113701 -1.91858 -42.5399 -6.473 -1.23299 -7.60729 7.53365 11.7122 4.56125 11.6799 -12.9547 3.2495 -3.26872 50.3463 25.4454 38.5339 -29.2081 0.0598081 0.137039 -9.87145 -5.13967 55.5167 -24.234 0.0496218 0.113702 -6.55185 2.18471 1.44377 9.23673 -4.20556 2.0327 -2.09663 1.68511 2.56792 -0.852353 -38.7721 -0.655187 -0.959427 3.58307 -0.0325484 -2.32622 -40.4017 -6.04875 -3.51146 -6.17105 16.0223 0.779096 -9.8844 12.4959 2.48481e-17 -7.95139e-16 1.2424e-17 -9.23673 -4.20556 2.0327 -8.78589 -22.9665 20.8933 0.852353 -38.7721 -0.655187 5.28439 19.1761 -0.554955 2.32622 -40.4017 -6.04875 2.44449 -2.56162 -15.6274 -0.779096 -9.8844 12.4959 -8.97581e-16 -5.49669e-16 -1.27282e-14 
7.80064 91.3657 47.1425 6.38769 1.74011 0.862319 0 5.07867 -1.15138 -0.861169 -2.29868 0.722689 0 5.61661 1.07143 -0.679356 -0.623618 0.59245 -1.02604e-17 5.98978 0.11501 -0.489443 1.41727 0.558796 -1.10457e-17 6.50583 -0.443523 -0.30825 4.6523 0.598971 -1.97295e-17 7.60548 -1.50593 0.0437882 6.39159 0.627439 -2.53307e-17 9.49737 -0.914492 0.547305 7.34529 0.376559 -2.90401e-17 10.5513 1.57691 -0.0883294 0.0395065 0.269675 -1.29193e-17 4.78644 0.715339 -1.66924 -54.6617 -4.26568 -1.8116e-17 4.82109 0.421791 0.491574 2.01353 -1.13103 -2.00958e-17 4.83041 0.765062 -6.22465 41.1567 4.24456 1.23299 -7.60731 7.53374 -12.6931 5.80612 -11.0099 12.9547 3.2495 -3.26872 -39.0377 21.4267 -40.7332 29.2081 0.0598081 0.137039 8.94541 -3.97227 -48.4113 24.234 0.0496219 0.113701 -2.91967 -42.9094 -7.72098 -1.23299 -7.60729 7.53365 12.1518 4.95728 12.145 -12.9547 3.2495 -3.26872 50.1438 24.6182 38.7867 -29.2081 0.0598081 0.137039 -9.78341 -5.01509 54.79 -24.234 0.0496218 0.113702 -7.01405 3.10602 1.85296 9.23673 -4.20556 2.0327 -2.26721 1.00165 2.37701 -0.852353 -38.7721 -0.655187 -1.10526 4.12723 -0.0322406 -2.32622 -40.4017 -6.04875 -3.61422 -6.52015 15.9891 0.779096 -9.8844 12.4959 -1.67837e-16 -8.04171e-16 2.14562e-17 -9.23673 -4.20556 2.0327 -9.09382 -23.6563 20.8542 0.852353 -38.7721 -0.655187 5.39946 19.5657 -0.586305 2.32622 -40.4017 -6.04875 2.72122 -2.00791 -15.6829 -0.779096 -9.8844 12.4959 -5.00011e-16 -5.65103e-16 -1.27501e-14 
